<mxfile host="app.diagrams.net" agent="Mozilla/5.0 (Macintosh; Intel Mac OS X 10_15_7) AppleWebKit/605.1.15 (KHTML, like Gecko) Version/18.1.1 Safari/605.1.15" version="26.0.1">
  <diagram name="Page-1" id="IzrUfA4n4kprZhdY1C_h">
    <mxGraphModel grid="1" page="1" gridSize="10" guides="1" tooltips="1" connect="1" arrows="1" fold="1" pageScale="1" pageWidth="1169" pageHeight="827" math="0" shadow="0">
      <root>
        <mxCell id="0" />
        <mxCell id="1" parent="0" />
        <mxCell id="9HG040LBZJuuGADjRzK_-10" value="" style="rounded=0;orthogonalLoop=1;jettySize=auto;html=1;endArrow=halfCircle;endFill=0;endSize=6;strokeWidth=1;sketch=0;fillColor=#ffe6cc;strokeColor=#d79b00;" edge="1" parent="1">
          <mxGeometry relative="1" as="geometry">
            <mxPoint x="220" y="384.8800000000001" as="sourcePoint" />
            <mxPoint x="40" y="385" as="targetPoint" />
          </mxGeometry>
        </mxCell>
        <mxCell id="9HG040LBZJuuGADjRzK_-11" value="Internship Interface" style="edgeLabel;html=1;align=center;verticalAlign=middle;resizable=0;points=[];" connectable="0" vertex="1" parent="9HG040LBZJuuGADjRzK_-10">
          <mxGeometry x="0.3293" relative="1" as="geometry">
            <mxPoint x="7" as="offset" />
          </mxGeometry>
        </mxCell>
        <mxCell id="9HG040LBZJuuGADjRzK_-12" value="" style="rounded=0;orthogonalLoop=1;jettySize=auto;html=1;endArrow=halfCircle;endFill=0;endSize=6;strokeWidth=1;sketch=0;fillColor=#fff2cc;strokeColor=#d6b656;" edge="1" parent="1">
          <mxGeometry relative="1" as="geometry">
            <mxPoint x="220" y="314.88" as="sourcePoint" />
            <mxPoint x="40" y="315" as="targetPoint" />
          </mxGeometry>
        </mxCell>
        <mxCell id="9HG040LBZJuuGADjRzK_-13" value="Selection Interface" style="edgeLabel;html=1;align=center;verticalAlign=middle;resizable=0;points=[];" connectable="0" vertex="1" parent="9HG040LBZJuuGADjRzK_-12">
          <mxGeometry x="0.6" y="-2" relative="1" as="geometry">
            <mxPoint x="29" y="2" as="offset" />
          </mxGeometry>
        </mxCell>
        <mxCell id="9HG040LBZJuuGADjRzK_-14" value="" style="rounded=0;orthogonalLoop=1;jettySize=auto;html=1;endArrow=halfCircle;endFill=0;endSize=6;strokeWidth=1;sketch=0;fillColor=#d5e8d4;strokeColor=#82b366;" edge="1" parent="1">
          <mxGeometry relative="1" as="geometry">
            <mxPoint x="220" y="244.88" as="sourcePoint" />
            <mxPoint x="40" y="245" as="targetPoint" />
          </mxGeometry>
        </mxCell>
        <mxCell id="9HG040LBZJuuGADjRzK_-15" value="Recommendation Interface" style="edgeLabel;html=1;align=center;verticalAlign=middle;resizable=0;points=[];" connectable="0" vertex="1" parent="9HG040LBZJuuGADjRzK_-14">
          <mxGeometry x="0.3173" relative="1" as="geometry">
            <mxPoint x="24" as="offset" />
          </mxGeometry>
        </mxCell>
        <mxCell id="9HG040LBZJuuGADjRzK_-16" value="" style="rounded=0;orthogonalLoop=1;jettySize=auto;html=1;endArrow=halfCircle;endFill=0;endSize=6;strokeWidth=1;sketch=0;fillColor=#dae8fc;strokeColor=#6c8ebf;" edge="1" parent="1">
          <mxGeometry relative="1" as="geometry">
            <mxPoint x="220" y="174.88" as="sourcePoint" />
            <mxPoint x="40" y="175" as="targetPoint" />
          </mxGeometry>
        </mxCell>
        <mxCell id="9HG040LBZJuuGADjRzK_-17" value="Position Interface" style="edgeLabel;html=1;align=center;verticalAlign=middle;resizable=0;points=[];" connectable="0" vertex="1" parent="9HG040LBZJuuGADjRzK_-16">
          <mxGeometry x="0.191" relative="1" as="geometry">
            <mxPoint x="-10" as="offset" />
          </mxGeometry>
        </mxCell>
        <mxCell id="9HG040LBZJuuGADjRzK_-18" value="" style="rounded=0;orthogonalLoop=1;jettySize=auto;html=1;endArrow=halfCircle;endFill=0;endSize=6;strokeWidth=1;sketch=0;fillColor=#e1d5e7;strokeColor=#9673a6;" edge="1" parent="1">
          <mxGeometry relative="1" as="geometry">
            <mxPoint x="220" y="104.88" as="sourcePoint" />
            <mxPoint x="40" y="105" as="targetPoint" />
          </mxGeometry>
        </mxCell>
        <mxCell id="9HG040LBZJuuGADjRzK_-19" value="User Interface" style="edgeLabel;html=1;align=center;verticalAlign=middle;resizable=0;points=[];" connectable="0" vertex="1" parent="9HG040LBZJuuGADjRzK_-18">
          <mxGeometry x="0.3774" relative="1" as="geometry">
            <mxPoint x="-2" as="offset" />
          </mxGeometry>
        </mxCell>
        <mxCell id="9HG040LBZJuuGADjRzK_-20" value="" style="ellipse;whiteSpace=wrap;html=1;align=center;aspect=fixed;fillColor=none;strokeColor=none;resizable=0;perimeter=centerPerimeter;rotatable=0;allowArrows=0;points=[];outlineConnect=1;" vertex="1" parent="1">
          <mxGeometry x="1004" y="380" width="10" height="10" as="geometry" />
        </mxCell>
        <mxCell id="9HG040LBZJuuGADjRzK_-21" value="" style="ellipse;whiteSpace=wrap;html=1;align=center;aspect=fixed;fillColor=none;strokeColor=none;resizable=0;perimeter=centerPerimeter;rotatable=0;allowArrows=0;points=[];outlineConnect=1;" vertex="1" parent="1">
          <mxGeometry x="1004" y="170" width="10" height="10" as="geometry" />
        </mxCell>
        <mxCell id="9HG040LBZJuuGADjRzK_-22" value="Application Server" style="shape=folder;fontStyle=1;spacingTop=10;tabWidth=40;tabHeight=14;tabPosition=left;html=1;whiteSpace=wrap;verticalAlign=top;" vertex="1" parent="1">
          <mxGeometry x="230" y="40" width="660" height="470" as="geometry" />
        </mxCell>
        <mxCell id="9HG040LBZJuuGADjRzK_-23" value="" style="whiteSpace=wrap;html=1;aspect=fixed;fillColor=#e1d5e7;strokeColor=#9673a6;" vertex="1" parent="1">
          <mxGeometry x="220" y="95" width="20" height="20" as="geometry" />
        </mxCell>
        <mxCell id="9HG040LBZJuuGADjRzK_-24" value="" style="whiteSpace=wrap;html=1;aspect=fixed;fillColor=#dae8fc;strokeColor=#6c8ebf;" vertex="1" parent="1">
          <mxGeometry x="220" y="165" width="20" height="20" as="geometry" />
        </mxCell>
        <mxCell id="9HG040LBZJuuGADjRzK_-25" value="" style="whiteSpace=wrap;html=1;aspect=fixed;fillColor=#d5e8d4;strokeColor=#82b366;" vertex="1" parent="1">
          <mxGeometry x="220" y="235" width="20" height="20" as="geometry" />
        </mxCell>
        <mxCell id="9HG040LBZJuuGADjRzK_-26" value="" style="whiteSpace=wrap;html=1;aspect=fixed;fillColor=#fff2cc;strokeColor=#d6b656;" vertex="1" parent="1">
          <mxGeometry x="220" y="305" width="20" height="20" as="geometry" />
        </mxCell>
        <mxCell id="9HG040LBZJuuGADjRzK_-27" value="" style="whiteSpace=wrap;html=1;aspect=fixed;fillColor=#ffe6cc;strokeColor=#d79b00;" vertex="1" parent="1">
          <mxGeometry x="220" y="375" width="20" height="20" as="geometry" />
        </mxCell>
        <mxCell id="9HG040LBZJuuGADjRzK_-35" value="" style="whiteSpace=wrap;html=1;aspect=fixed;fillColor=#f8cecc;strokeColor=#b85450;" vertex="1" parent="1">
          <mxGeometry x="880" y="445" width="20" height="20" as="geometry" />
        </mxCell>
        <mxCell id="9HG040LBZJuuGADjRzK_-36" value="" style="whiteSpace=wrap;html=1;aspect=fixed;fillColor=#f5f5f5;fontColor=#333333;strokeColor=#666666;" vertex="1" parent="1">
          <mxGeometry x="880" y="165" width="20" height="20" as="geometry" />
        </mxCell>
        <mxCell id="9HG040LBZJuuGADjRzK_-37" value="" style="rounded=0;orthogonalLoop=1;jettySize=auto;html=1;endArrow=oval;endFill=0;sketch=0;sourcePerimeterSpacing=0;targetPerimeterSpacing=0;endSize=10;exitX=1;exitY=0.862;exitDx=0;exitDy=0;exitPerimeter=0;" edge="1" parent="1">
          <mxGeometry relative="1" as="geometry">
            <mxPoint x="900" y="175" as="sourcePoint" />
            <mxPoint x="1031" y="175" as="targetPoint" />
          </mxGeometry>
        </mxCell>
        <mxCell id="9HG040LBZJuuGADjRzK_-38" value="DBMS Server API" style="edgeLabel;html=1;align=center;verticalAlign=middle;resizable=0;points=[];" connectable="0" vertex="1" parent="9HG040LBZJuuGADjRzK_-37">
          <mxGeometry x="-0.3425" relative="1" as="geometry">
            <mxPoint x="12" y="-1" as="offset" />
          </mxGeometry>
        </mxCell>
        <mxCell id="9HG040LBZJuuGADjRzK_-40" value="" style="rounded=0;orthogonalLoop=1;jettySize=auto;html=1;endArrow=oval;endFill=0;sketch=0;sourcePerimeterSpacing=0;targetPerimeterSpacing=0;endSize=10;exitX=1;exitY=0.862;exitDx=0;exitDy=0;exitPerimeter=0;" edge="1" parent="1">
          <mxGeometry relative="1" as="geometry">
            <mxPoint x="900" y="455" as="sourcePoint" />
            <mxPoint x="1031" y="455" as="targetPoint" />
          </mxGeometry>
        </mxCell>
        <mxCell id="9HG040LBZJuuGADjRzK_-41" value="Mail Server API" style="edgeLabel;html=1;align=center;verticalAlign=middle;resizable=0;points=[];" connectable="0" vertex="1" parent="9HG040LBZJuuGADjRzK_-40">
          <mxGeometry x="-0.3425" relative="1" as="geometry">
            <mxPoint x="5" y="-1" as="offset" />
          </mxGeometry>
        </mxCell>
        <mxCell id="ujAI-jM5uA0ieMnCiChi-17" style="edgeStyle=orthogonalEdgeStyle;rounded=0;orthogonalLoop=1;jettySize=auto;html=1;exitX=1;exitY=0.75;exitDx=0;exitDy=0;fillColor=#f8cecc;strokeColor=#b85450;endArrow=none;endFill=0;movable=1;resizable=1;rotatable=1;deletable=1;editable=1;locked=0;connectable=1;" edge="1" parent="1" source="9HG040LBZJuuGADjRzK_-45">
          <mxGeometry relative="1" as="geometry">
            <mxPoint x="460" y="455" as="targetPoint" />
            <Array as="points">
              <mxPoint x="460" y="117" />
            </Array>
          </mxGeometry>
        </mxCell>
        <mxCell id="ujAI-jM5uA0ieMnCiChi-19" style="edgeStyle=orthogonalEdgeStyle;rounded=0;orthogonalLoop=1;jettySize=auto;html=1;exitX=1;exitY=0.25;exitDx=0;exitDy=0;fillColor=#f5f5f5;strokeColor=#666666;endArrow=none;endFill=0;" edge="1" parent="1" source="9HG040LBZJuuGADjRzK_-45">
          <mxGeometry relative="1" as="geometry">
            <mxPoint x="520" y="175" as="targetPoint" />
          </mxGeometry>
        </mxCell>
        <mxCell id="9HG040LBZJuuGADjRzK_-45" value="User&lt;div&gt;Manager&lt;/div&gt;" style="shape=module;align=left;spacingLeft=20;align=center;verticalAlign=middle;whiteSpace=wrap;html=1;fillColor=#e1d5e7;strokeColor=#9673a6;" vertex="1" parent="1">
          <mxGeometry x="270" y="80" width="130" height="50" as="geometry" />
        </mxCell>
        <mxCell id="9HG040LBZJuuGADjRzK_-50" style="edgeStyle=orthogonalEdgeStyle;rounded=0;orthogonalLoop=1;jettySize=auto;html=1;entryX=0.075;entryY=0.5;entryDx=0;entryDy=0;entryPerimeter=0;endArrow=none;endFill=0;fillColor=#e1d5e7;strokeColor=#9673a6;" edge="1" parent="1" source="9HG040LBZJuuGADjRzK_-23" target="9HG040LBZJuuGADjRzK_-45">
          <mxGeometry relative="1" as="geometry" />
        </mxCell>
        <mxCell id="ujAI-jM5uA0ieMnCiChi-16" style="edgeStyle=orthogonalEdgeStyle;rounded=0;orthogonalLoop=1;jettySize=auto;html=1;exitX=1;exitY=0.75;exitDx=0;exitDy=0;fillColor=#f8cecc;strokeColor=#b85450;endArrow=none;endFill=0;" edge="1" parent="1" source="9HG040LBZJuuGADjRzK_-53">
          <mxGeometry relative="1" as="geometry">
            <mxPoint x="460" y="455" as="targetPoint" />
            <Array as="points">
              <mxPoint x="460" y="187" />
            </Array>
          </mxGeometry>
        </mxCell>
        <mxCell id="ujAI-jM5uA0ieMnCiChi-20" style="edgeStyle=orthogonalEdgeStyle;rounded=0;orthogonalLoop=1;jettySize=auto;html=1;endArrow=none;endFill=0;fillColor=#f5f5f5;strokeColor=#666666;" edge="1" parent="1" source="9HG040LBZJuuGADjRzK_-53">
          <mxGeometry relative="1" as="geometry">
            <mxPoint x="520" y="175" as="targetPoint" />
          </mxGeometry>
        </mxCell>
        <mxCell id="9HG040LBZJuuGADjRzK_-53" value="Position&lt;div&gt;Manager&lt;/div&gt;" style="shape=module;align=left;spacingLeft=20;align=center;verticalAlign=middle;whiteSpace=wrap;html=1;fillColor=#dae8fc;strokeColor=#6c8ebf;" vertex="1" parent="1">
          <mxGeometry x="270" y="150" width="130" height="50" as="geometry" />
        </mxCell>
        <mxCell id="9HG040LBZJuuGADjRzK_-54" style="edgeStyle=orthogonalEdgeStyle;rounded=0;orthogonalLoop=1;jettySize=auto;html=1;entryX=0.075;entryY=0.5;entryDx=0;entryDy=0;entryPerimeter=0;endArrow=none;endFill=0;fillColor=#dae8fc;strokeColor=#6c8ebf;" edge="1" parent="1" target="9HG040LBZJuuGADjRzK_-53">
          <mxGeometry relative="1" as="geometry">
            <mxPoint x="240" y="175" as="sourcePoint" />
          </mxGeometry>
        </mxCell>
        <mxCell id="ujAI-jM5uA0ieMnCiChi-15" style="edgeStyle=orthogonalEdgeStyle;rounded=0;orthogonalLoop=1;jettySize=auto;html=1;exitX=1;exitY=0.75;exitDx=0;exitDy=0;fillColor=#f8cecc;strokeColor=#b85450;endArrow=none;endFill=0;" edge="1" parent="1" source="9HG040LBZJuuGADjRzK_-56">
          <mxGeometry relative="1" as="geometry">
            <mxPoint x="460" y="455" as="targetPoint" />
            <Array as="points">
              <mxPoint x="460" y="257" />
            </Array>
          </mxGeometry>
        </mxCell>
        <mxCell id="ujAI-jM5uA0ieMnCiChi-25" style="edgeStyle=orthogonalEdgeStyle;rounded=0;orthogonalLoop=1;jettySize=auto;html=1;exitX=1;exitY=0.25;exitDx=0;exitDy=0;fillColor=#f5f5f5;strokeColor=#666666;endArrow=none;endFill=0;" edge="1" parent="1" source="9HG040LBZJuuGADjRzK_-56">
          <mxGeometry relative="1" as="geometry">
            <mxPoint x="519.9999999999999" y="175" as="targetPoint" />
          </mxGeometry>
        </mxCell>
        <mxCell id="9HG040LBZJuuGADjRzK_-56" value="Recommendation&lt;div&gt;Manager&lt;/div&gt;" style="shape=module;align=left;spacingLeft=20;align=center;verticalAlign=middle;whiteSpace=wrap;html=1;fillColor=#d5e8d4;strokeColor=#82b366;" vertex="1" parent="1">
          <mxGeometry x="270" y="220" width="130" height="50" as="geometry" />
        </mxCell>
        <mxCell id="9HG040LBZJuuGADjRzK_-57" style="edgeStyle=orthogonalEdgeStyle;rounded=0;orthogonalLoop=1;jettySize=auto;html=1;entryX=0.075;entryY=0.5;entryDx=0;entryDy=0;entryPerimeter=0;endArrow=none;endFill=0;fillColor=#d5e8d4;strokeColor=#82b366;" edge="1" parent="1" target="9HG040LBZJuuGADjRzK_-56">
          <mxGeometry relative="1" as="geometry">
            <mxPoint x="240" y="245" as="sourcePoint" />
          </mxGeometry>
        </mxCell>
        <mxCell id="ujAI-jM5uA0ieMnCiChi-14" style="edgeStyle=orthogonalEdgeStyle;rounded=0;orthogonalLoop=1;jettySize=auto;html=1;exitX=1;exitY=0.75;exitDx=0;exitDy=0;fillColor=#f8cecc;strokeColor=#b85450;endArrow=none;endFill=0;" edge="1" parent="1" source="9HG040LBZJuuGADjRzK_-58">
          <mxGeometry relative="1" as="geometry">
            <mxPoint x="460" y="455" as="targetPoint" />
            <Array as="points">
              <mxPoint x="460" y="327" />
            </Array>
          </mxGeometry>
        </mxCell>
        <mxCell id="ujAI-jM5uA0ieMnCiChi-28" style="edgeStyle=orthogonalEdgeStyle;rounded=0;orthogonalLoop=1;jettySize=auto;html=1;exitX=1;exitY=0.25;exitDx=0;exitDy=0;fillColor=#f5f5f5;strokeColor=#666666;endArrow=none;endFill=0;" edge="1" parent="1" source="9HG040LBZJuuGADjRzK_-58">
          <mxGeometry relative="1" as="geometry">
            <mxPoint x="520" y="175" as="targetPoint" />
          </mxGeometry>
        </mxCell>
        <mxCell id="9HG040LBZJuuGADjRzK_-58" value="Selection&lt;div&gt;Manager&lt;/div&gt;" style="shape=module;align=left;spacingLeft=20;align=center;verticalAlign=middle;whiteSpace=wrap;html=1;fillColor=#fff2cc;strokeColor=#d6b656;" vertex="1" parent="1">
          <mxGeometry x="270" y="290" width="130" height="50" as="geometry" />
        </mxCell>
        <mxCell id="9HG040LBZJuuGADjRzK_-59" style="edgeStyle=orthogonalEdgeStyle;rounded=0;orthogonalLoop=1;jettySize=auto;html=1;entryX=0.075;entryY=0.5;entryDx=0;entryDy=0;entryPerimeter=0;endArrow=none;endFill=0;fillColor=#fff2cc;strokeColor=#d6b656;" edge="1" parent="1" target="9HG040LBZJuuGADjRzK_-58">
          <mxGeometry relative="1" as="geometry">
            <mxPoint x="240" y="315" as="sourcePoint" />
          </mxGeometry>
        </mxCell>
        <mxCell id="ujAI-jM5uA0ieMnCiChi-13" style="edgeStyle=orthogonalEdgeStyle;rounded=0;orthogonalLoop=1;jettySize=auto;html=1;exitX=1;exitY=0.75;exitDx=0;exitDy=0;endArrow=none;endFill=0;fillColor=#f8cecc;strokeColor=#b85450;" edge="1" parent="1" source="9HG040LBZJuuGADjRzK_-60">
          <mxGeometry relative="1" as="geometry">
            <mxPoint x="460" y="455" as="targetPoint" />
            <Array as="points">
              <mxPoint x="460" y="397" />
            </Array>
          </mxGeometry>
        </mxCell>
        <mxCell id="ujAI-jM5uA0ieMnCiChi-29" style="edgeStyle=orthogonalEdgeStyle;rounded=0;orthogonalLoop=1;jettySize=auto;html=1;exitX=1;exitY=0.25;exitDx=0;exitDy=0;fillColor=#f5f5f5;strokeColor=#666666;endArrow=none;endFill=0;" edge="1" parent="1" source="9HG040LBZJuuGADjRzK_-60">
          <mxGeometry relative="1" as="geometry">
            <mxPoint x="520" y="175" as="targetPoint" />
          </mxGeometry>
        </mxCell>
        <mxCell id="9HG040LBZJuuGADjRzK_-60" value="Internship&lt;div&gt;Manager&lt;/div&gt;" style="shape=module;align=left;spacingLeft=20;align=center;verticalAlign=middle;whiteSpace=wrap;html=1;fillColor=#ffe6cc;strokeColor=#d79b00;" vertex="1" parent="1">
          <mxGeometry x="270" y="360" width="130" height="50" as="geometry" />
        </mxCell>
        <mxCell id="9HG040LBZJuuGADjRzK_-61" style="edgeStyle=orthogonalEdgeStyle;rounded=0;orthogonalLoop=1;jettySize=auto;html=1;entryX=0.075;entryY=0.5;entryDx=0;entryDy=0;entryPerimeter=0;endArrow=none;endFill=0;fillColor=#ffe6cc;strokeColor=#d79b00;" edge="1" parent="1" target="9HG040LBZJuuGADjRzK_-60">
          <mxGeometry relative="1" as="geometry">
            <mxPoint x="240" y="385" as="sourcePoint" />
          </mxGeometry>
        </mxCell>
        <mxCell id="FZSn-BCclzUJg0GwzUak-3" style="edgeStyle=orthogonalEdgeStyle;rounded=0;orthogonalLoop=1;jettySize=auto;html=1;entryX=0;entryY=0.5;entryDx=0;entryDy=0;endArrow=none;endFill=0;fillColor=#f8cecc;strokeColor=#b85450;" edge="1" parent="1" source="9HG040LBZJuuGADjRzK_-62" target="9HG040LBZJuuGADjRzK_-35">
          <mxGeometry relative="1" as="geometry" />
        </mxCell>
        <mxCell id="9HG040LBZJuuGADjRzK_-62" value="Notification&lt;div&gt;Manager&lt;/div&gt;" style="shape=module;align=left;spacingLeft=20;align=center;verticalAlign=middle;whiteSpace=wrap;html=1;fillColor=#f8cecc;strokeColor=#b85450;" vertex="1" parent="1">
          <mxGeometry x="720" y="430" width="130" height="50" as="geometry" />
        </mxCell>
        <mxCell id="FZSn-BCclzUJg0GwzUak-5" style="edgeStyle=orthogonalEdgeStyle;rounded=0;orthogonalLoop=1;jettySize=auto;html=1;entryX=0;entryY=0.5;entryDx=0;entryDy=0;endArrow=none;endFill=0;fillColor=#f5f5f5;strokeColor=#666666;" edge="1" parent="1" source="FZSn-BCclzUJg0GwzUak-4" target="9HG040LBZJuuGADjRzK_-36">
          <mxGeometry relative="1" as="geometry" />
        </mxCell>
        <mxCell id="FZSn-BCclzUJg0GwzUak-4" value="Model" style="shape=module;align=left;spacingLeft=20;align=center;verticalAlign=middle;whiteSpace=wrap;html=1;fillColor=#f5f5f5;strokeColor=#666666;fontColor=#333333;" vertex="1" parent="1">
          <mxGeometry x="720" y="150" width="130" height="50" as="geometry" />
        </mxCell>
        <mxCell id="ujAI-jM5uA0ieMnCiChi-1" value="" style="rounded=0;orthogonalLoop=1;jettySize=auto;html=1;endArrow=oval;endFill=0;sketch=0;sourcePerimeterSpacing=0;targetPerimeterSpacing=0;endSize=10;fillColor=#f8cecc;strokeColor=#b85450;" edge="1" parent="1">
          <mxGeometry relative="1" as="geometry">
            <mxPoint x="460" y="455" as="sourcePoint" />
            <mxPoint x="579" y="454.9" as="targetPoint" />
          </mxGeometry>
        </mxCell>
        <mxCell id="ujAI-jM5uA0ieMnCiChi-5" value="" style="rounded=0;orthogonalLoop=1;jettySize=auto;html=1;endArrow=halfCircle;endFill=0;endSize=6;strokeWidth=1;sketch=0;fillColor=#f5f5f5;strokeColor=#666666;" edge="1" parent="1">
          <mxGeometry relative="1" as="geometry">
            <mxPoint x="730" y="174.75" as="sourcePoint" />
            <mxPoint x="580" y="175" as="targetPoint" />
          </mxGeometry>
        </mxCell>
        <mxCell id="ujAI-jM5uA0ieMnCiChi-7" value="Model Interface" style="edgeLabel;html=1;align=center;verticalAlign=middle;resizable=0;points=[];" connectable="0" vertex="1" parent="ujAI-jM5uA0ieMnCiChi-5">
          <mxGeometry x="0.5824" relative="1" as="geometry">
            <mxPoint x="27" as="offset" />
          </mxGeometry>
        </mxCell>
        <mxCell id="ujAI-jM5uA0ieMnCiChi-8" value="" style="rounded=0;orthogonalLoop=1;jettySize=auto;html=1;endArrow=halfCircle;endFill=0;endSize=6;strokeWidth=1;sketch=0;fillColor=#f8cecc;strokeColor=#b85450;" edge="1" parent="1">
          <mxGeometry relative="1" as="geometry">
            <mxPoint x="730" y="454.5799999999999" as="sourcePoint" />
            <mxPoint x="580" y="455" as="targetPoint" />
          </mxGeometry>
        </mxCell>
        <mxCell id="ujAI-jM5uA0ieMnCiChi-9" value="Notification Interface" style="edgeLabel;html=1;align=center;verticalAlign=middle;resizable=0;points=[];" connectable="0" vertex="1" parent="ujAI-jM5uA0ieMnCiChi-8">
          <mxGeometry x="0.5824" relative="1" as="geometry">
            <mxPoint x="38" as="offset" />
          </mxGeometry>
        </mxCell>
        <mxCell id="ujAI-jM5uA0ieMnCiChi-18" value="" style="rounded=0;orthogonalLoop=1;jettySize=auto;html=1;endArrow=oval;endFill=0;sketch=0;sourcePerimeterSpacing=0;targetPerimeterSpacing=0;endSize=10;fillColor=#f5f5f5;strokeColor=#666666;" edge="1" parent="1">
          <mxGeometry relative="1" as="geometry">
            <mxPoint x="520" y="175" as="sourcePoint" />
            <mxPoint x="579" y="174.89999999999998" as="targetPoint" />
          </mxGeometry>
        </mxCell>
      </root>
    </mxGraphModel>
  </diagram>
</mxfile>
